<mxfile host="app.diagrams.net" agent="Mozilla/5.0 (Windows NT 10.0; Win64; x64) AppleWebKit/537.36 (KHTML, like Gecko) Chrome/137.0.0.0 Safari/537.36 Edg/137.0.0.0" version="27.1.5">
  <diagram name="Page-1" id="yo8ZCmbzhhea4wm0aXnp">
    <mxGraphModel dx="1144" dy="660" grid="1" gridSize="10" guides="1" tooltips="1" connect="1" arrows="1" fold="1" page="1" pageScale="1" pageWidth="850" pageHeight="1100" math="0" shadow="0">
      <root>
        <mxCell id="0" />
        <mxCell id="1" parent="0" />
        <mxCell id="iuIq7qe5YNeMEK22x9w4-1" value="Datos personales del cliente" style="rounded=1;whiteSpace=wrap;arcSize=50;strokeWidth=2;" parent="1" vertex="1">
          <mxGeometry x="50" y="88" width="104" height="56" as="geometry" />
        </mxCell>
        <mxCell id="iuIq7qe5YNeMEK22x9w4-2" style="edgeStyle=orthogonalEdgeStyle;rounded=0;orthogonalLoop=1;jettySize=auto;html=1;exitX=1;exitY=0.5;exitDx=0;exitDy=0;entryX=0;entryY=0.75;entryDx=0;entryDy=0;" parent="1" source="iuIq7qe5YNeMEK22x9w4-3" target="iuIq7qe5YNeMEK22x9w4-9" edge="1">
          <mxGeometry relative="1" as="geometry">
            <Array as="points">
              <mxPoint x="360" y="117" />
              <mxPoint x="360" y="571" />
            </Array>
          </mxGeometry>
        </mxCell>
        <mxCell id="iuIq7qe5YNeMEK22x9w4-3" value="A1 Proceso" style="whiteSpace=wrap;strokeWidth=2;" parent="1" vertex="1">
          <mxGeometry x="204" y="90" width="137" height="54" as="geometry" />
        </mxCell>
        <mxCell id="iuIq7qe5YNeMEK22x9w4-4" value="A2 Proceso" style="whiteSpace=wrap;strokeWidth=2;" parent="1" vertex="1">
          <mxGeometry x="450" y="90" width="137" height="54" as="geometry" />
        </mxCell>
        <mxCell id="iuIq7qe5YNeMEK22x9w4-5" value="A3 Proceso" style="whiteSpace=wrap;strokeWidth=2;" parent="1" vertex="1">
          <mxGeometry x="760" y="291" width="137" height="54" as="geometry" />
        </mxCell>
        <mxCell id="iuIq7qe5YNeMEK22x9w4-6" value="entrada 2" style="rounded=1;whiteSpace=wrap;arcSize=50;strokeWidth=2;" parent="1" vertex="1">
          <mxGeometry x="465" y="321" width="94" height="39" as="geometry" />
        </mxCell>
        <mxCell id="iuIq7qe5YNeMEK22x9w4-7" style="edgeStyle=orthogonalEdgeStyle;rounded=0;orthogonalLoop=1;jettySize=auto;html=1;exitX=1;exitY=0.5;exitDx=0;exitDy=0;entryX=0;entryY=1;entryDx=0;entryDy=0;" parent="1" source="iuIq7qe5YNeMEK22x9w4-8" target="iuIq7qe5YNeMEK22x9w4-5" edge="1">
          <mxGeometry relative="1" as="geometry">
            <Array as="points">
              <mxPoint x="690" y="400" />
              <mxPoint x="690" y="345" />
            </Array>
          </mxGeometry>
        </mxCell>
        <mxCell id="iuIq7qe5YNeMEK22x9w4-8" value="entrada 3" style="rounded=1;whiteSpace=wrap;arcSize=50;strokeWidth=2;" parent="1" vertex="1">
          <mxGeometry x="471.5" y="381" width="94" height="39" as="geometry" />
        </mxCell>
        <mxCell id="iuIq7qe5YNeMEK22x9w4-9" value="A4 Proceso" style="whiteSpace=wrap;strokeWidth=2;" parent="1" vertex="1">
          <mxGeometry x="1006" y="531" width="137" height="54" as="geometry" />
        </mxCell>
        <mxCell id="iuIq7qe5YNeMEK22x9w4-10" value="1 Almacén de datos" style="shape=cylinder3;boundedLbl=1;backgroundOutline=1;size=10;strokeWidth=2;whiteSpace=wrap;" parent="1" vertex="1">
          <mxGeometry x="735" y="420" width="155" height="80" as="geometry" />
        </mxCell>
        <mxCell id="iuIq7qe5YNeMEK22x9w4-11" value="2 Almacén de datos" style="shape=cylinder3;boundedLbl=1;backgroundOutline=1;size=10;strokeWidth=2;whiteSpace=wrap;" parent="1" vertex="1">
          <mxGeometry x="1006" y="691" width="155" height="80" as="geometry" />
        </mxCell>
        <mxCell id="iuIq7qe5YNeMEK22x9w4-12" value="salida 1" style="rounded=1;whiteSpace=wrap;arcSize=50;strokeWidth=2;" parent="1" vertex="1">
          <mxGeometry x="1236" y="538.5" width="79" height="39" as="geometry" />
        </mxCell>
        <mxCell id="iuIq7qe5YNeMEK22x9w4-13" value="" style="curved=1;startArrow=none;endArrow=block;exitX=1;exitY=0.51;entryX=0;entryY=0.5;rounded=0;" parent="1" source="iuIq7qe5YNeMEK22x9w4-1" target="iuIq7qe5YNeMEK22x9w4-3" edge="1">
          <mxGeometry relative="1" as="geometry">
            <Array as="points" />
          </mxGeometry>
        </mxCell>
        <mxCell id="iuIq7qe5YNeMEK22x9w4-14" value="salida 2" style="curved=1;startArrow=none;endArrow=block;exitX=1;exitY=0.5;entryX=0;entryY=0.5;rounded=0;" parent="1" source="iuIq7qe5YNeMEK22x9w4-3" target="iuIq7qe5YNeMEK22x9w4-4" edge="1">
          <mxGeometry relative="1" as="geometry">
            <Array as="points" />
          </mxGeometry>
        </mxCell>
        <mxCell id="iuIq7qe5YNeMEK22x9w4-15" value="salida 3" style="startArrow=none;endArrow=block;exitX=0.74;exitY=1;entryX=0;entryY=0.5;rounded=0;edgeStyle=orthogonalEdgeStyle;entryDx=0;entryDy=0;" parent="1" source="iuIq7qe5YNeMEK22x9w4-4" target="iuIq7qe5YNeMEK22x9w4-5" edge="1">
          <mxGeometry relative="1" as="geometry">
            <Array as="points">
              <mxPoint x="551" y="231" />
              <mxPoint x="710" y="231" />
              <mxPoint x="710" y="311" />
              <mxPoint x="760" y="311" />
            </Array>
          </mxGeometry>
        </mxCell>
        <mxCell id="iuIq7qe5YNeMEK22x9w4-16" value="" style="startArrow=none;endArrow=block;exitX=1;exitY=0.5;entryX=0;entryY=0.75;rounded=0;entryDx=0;entryDy=0;edgeStyle=orthogonalEdgeStyle;" parent="1" source="iuIq7qe5YNeMEK22x9w4-6" target="iuIq7qe5YNeMEK22x9w4-5" edge="1">
          <mxGeometry relative="1" as="geometry" />
        </mxCell>
        <mxCell id="iuIq7qe5YNeMEK22x9w4-17" value="salida 4" style="startArrow=none;endArrow=block;exitX=1.01;exitY=0.25;entryX=0;entryY=0.25;rounded=0;edgeStyle=orthogonalEdgeStyle;entryDx=0;entryDy=0;" parent="1" source="iuIq7qe5YNeMEK22x9w4-5" target="iuIq7qe5YNeMEK22x9w4-9" edge="1">
          <mxGeometry x="0.1151" relative="1" as="geometry">
            <Array as="points">
              <mxPoint x="960" y="305" />
              <mxPoint x="960" y="545" />
            </Array>
            <mxPoint y="1" as="offset" />
          </mxGeometry>
        </mxCell>
        <mxCell id="iuIq7qe5YNeMEK22x9w4-18" value="" style="startArrow=none;endArrow=block;exitX=0.5;exitY=1;entryX=0.5;entryY=0;rounded=0;edgeStyle=orthogonalEdgeStyle;entryDx=0;entryDy=0;entryPerimeter=0;exitDx=0;exitDy=0;" parent="1" source="iuIq7qe5YNeMEK22x9w4-5" target="iuIq7qe5YNeMEK22x9w4-10" edge="1">
          <mxGeometry relative="1" as="geometry">
            <Array as="points">
              <mxPoint x="813" y="345" />
            </Array>
          </mxGeometry>
        </mxCell>
        <mxCell id="iuIq7qe5YNeMEK22x9w4-19" value="" style="curved=1;startArrow=none;endArrow=block;exitX=1;exitY=0.5;entryX=0;entryY=0.51;rounded=0;" parent="1" source="iuIq7qe5YNeMEK22x9w4-9" target="iuIq7qe5YNeMEK22x9w4-12" edge="1">
          <mxGeometry relative="1" as="geometry">
            <Array as="points" />
          </mxGeometry>
        </mxCell>
        <mxCell id="iuIq7qe5YNeMEK22x9w4-20" style="edgeStyle=orthogonalEdgeStyle;rounded=0;orthogonalLoop=1;jettySize=auto;html=1;exitX=0.5;exitY=0;exitDx=0;exitDy=0;exitPerimeter=0;entryX=0.592;entryY=0.994;entryDx=0;entryDy=0;entryPerimeter=0;" parent="1" source="iuIq7qe5YNeMEK22x9w4-11" target="iuIq7qe5YNeMEK22x9w4-9" edge="1">
          <mxGeometry relative="1" as="geometry">
            <Array as="points">
              <mxPoint x="1087" y="691" />
            </Array>
          </mxGeometry>
        </mxCell>
      </root>
    </mxGraphModel>
  </diagram>
</mxfile>
